<svg xmlns="http://www.w3.org/2000/svg" xmlns:xlink="http://www.w3.org/1999/xlink" id="svg" version="1.1" viewBox="118.38 83.58 146.28 222.24"><g id="svgg"><path id="path0" d="M241.667 83.747 C 240.216 84.018,236.923 85.407,236.487 85.933 C 236.380 86.061,236.231 86.167,236.155 86.167 C 235.895 86.167,234.082 87.302,233.583 87.777 C 233.055 88.281,231.495 89.578,230.409 90.417 C 228.821 91.643,228.111 92.325,226.501 94.174 C 225.905 94.857,225.247 95.604,225.037 95.833 C 224.827 96.063,224.409 96.625,224.107 97.083 C 223.805 97.542,223.278 98.341,222.936 98.860 C 222.594 99.378,222.084 100.353,221.804 101.026 C 221.523 101.699,221.237 102.325,221.168 102.417 C 221.100 102.508,220.948 102.883,220.832 103.250 C 220.716 103.617,220.490 104.217,220.330 104.583 C 219.784 105.831,219.182 107.414,218.808 108.583 C 218.602 109.225,218.336 109.868,218.217 110.013 C 218.098 110.158,218.000 110.395,218.000 110.539 C 218.000 110.684,217.662 111.525,217.250 112.408 C 216.838 113.290,216.500 114.136,216.500 114.287 C 216.500 114.552,215.978 116.730,215.670 117.750 C 215.587 118.025,215.474 118.587,215.418 119.000 C 215.362 119.412,215.284 119.862,215.245 120.000 C 215.205 120.138,215.015 121.112,214.822 122.167 C 214.233 125.393,214.200 125.554,213.946 126.500 C 213.596 127.804,212.508 131.006,212.248 131.500 C 211.660 132.616,210.959 135.022,210.405 137.828 C 210.342 138.146,210.231 138.521,210.157 138.661 C 210.083 138.802,209.948 139.217,209.857 139.583 C 209.585 140.671,208.681 143.170,208.139 144.333 C 207.860 144.929,207.440 145.904,207.203 146.500 C 206.967 147.096,206.617 147.846,206.425 148.167 C 206.233 148.487,205.990 148.938,205.886 149.167 C 205.782 149.396,205.347 150.333,204.919 151.250 C 204.120 152.961,204.080 153.054,203.580 154.333 C 203.419 154.746,203.158 155.383,203.000 155.750 C 202.841 156.117,202.633 156.679,202.538 157.000 C 202.142 158.329,201.836 159.470,201.642 160.333 C 201.530 160.837,201.386 161.325,201.324 161.417 C 201.261 161.508,201.120 161.883,201.010 162.250 C 200.777 163.025,200.764 163.060,199.811 165.250 C 199.412 166.167,199.043 166.954,198.992 167.000 C 198.940 167.046,198.725 167.458,198.514 167.917 C 198.302 168.375,197.257 169.915,196.190 171.339 C 195.123 172.763,193.875 174.477,193.417 175.148 C 192.577 176.377,187.315 181.826,186.081 182.745 C 185.716 183.017,184.965 183.692,184.414 184.245 C 183.862 184.798,183.150 185.449,182.830 185.691 C 182.511 185.934,182.100 186.275,181.917 186.448 C 181.540 186.805,180.134 187.915,179.424 188.417 C 179.164 188.600,178.719 188.947,178.434 189.187 C 177.586 189.903,175.427 191.500,175.307 191.500 C 175.246 191.500,175.259 191.294,175.336 191.042 C 175.562 190.300,175.961 188.346,176.160 187.000 C 176.261 186.313,176.412 185.487,176.495 185.167 C 176.903 183.595,177.611 179.625,178.160 175.833 C 178.233 175.329,178.445 174.129,178.631 173.167 C 179.046 171.015,179.336 168.948,179.334 168.150 C 179.334 167.820,179.400 167.332,179.481 167.067 C 179.562 166.801,179.715 165.871,179.820 165.000 C 180.272 161.262,180.511 159.344,180.661 158.250 C 180.748 157.608,180.905 156.333,181.009 155.417 C 181.113 154.500,181.351 152.962,181.538 152.000 C 181.885 150.205,182.072 149.210,182.332 147.750 C 182.414 147.292,182.556 146.617,182.648 146.250 C 183.518 142.775,183.741 140.661,183.608 137.167 C 183.465 133.406,182.687 130.024,181.569 128.295 C 181.348 127.953,181.167 127.635,181.167 127.589 C 181.167 127.332,179.503 124.952,178.771 124.161 C 178.301 123.653,177.759 123.053,177.565 122.827 C 177.160 122.354,176.965 122.190,175.464 121.072 C 173.125 119.329,170.973 117.989,169.878 117.594 C 169.441 117.436,168.933 117.248,168.750 117.174 C 168.567 117.101,168.220 116.963,167.979 116.867 C 167.501 116.677,165.945 116.300,164.500 116.026 C 163.996 115.930,162.995 115.724,162.275 115.569 C 159.568 114.985,153.869 115.557,151.000 116.702 C 150.771 116.793,150.058 117.014,149.417 117.194 C 148.775 117.373,147.987 117.594,147.667 117.686 C 147.346 117.777,146.858 117.916,146.583 117.995 C 144.611 118.557,142.223 119.777,138.750 121.996 C 137.650 122.699,136.375 123.487,135.917 123.748 C 133.130 125.335,130.965 127.790,128.015 132.707 C 127.809 133.050,127.553 133.388,127.445 133.457 C 127.098 133.681,126.000 135.484,126.000 135.831 C 126.000 136.016,125.937 136.167,125.860 136.167 C 125.690 136.167,124.946 137.662,123.080 141.750 C 122.788 142.392,122.309 143.667,122.016 144.583 C 121.724 145.500,121.375 146.587,121.241 147.000 C 121.107 147.412,120.890 148.275,120.759 148.917 C 120.627 149.558,120.440 150.383,120.344 150.750 C 119.757 152.980,119.353 155.175,119.163 157.167 C 119.080 158.037,118.936 159.200,118.843 159.750 C 118.325 162.794,118.218 169.909,118.660 171.901 C 118.743 172.276,118.897 173.071,119.003 173.667 C 119.350 175.626,119.825 177.538,120.181 178.417 C 120.256 178.600,120.434 179.112,120.577 179.554 C 120.721 179.997,121.099 180.917,121.419 181.600 C 121.739 182.282,122.000 182.949,122.000 183.081 C 122.000 183.642,123.702 183.883,129.286 184.112 C 132.445 184.242,132.261 184.378,132.295 181.881 C 132.339 178.700,132.760 173.845,133.203 171.417 C 133.303 170.867,133.441 169.329,133.510 168.000 C 133.579 166.671,133.708 165.246,133.797 164.833 C 134.548 161.347,134.715 160.356,135.156 156.750 C 135.741 151.966,135.834 151.391,136.234 150.062 C 137.081 147.253,138.378 144.549,139.382 143.500 C 139.777 143.087,140.320 142.450,140.590 142.083 C 140.860 141.717,141.124 141.379,141.176 141.333 C 141.228 141.287,141.631 140.740,142.072 140.118 C 144.645 136.482,152.171 135.512,155.605 138.374 C 156.052 138.746,156.773 139.308,157.208 139.624 C 159.614 141.368,160.792 145.016,160.046 148.417 C 159.946 148.875,159.738 149.887,159.584 150.667 C 159.430 151.446,159.169 152.646,159.005 153.333 C 158.840 154.021,158.611 155.108,158.495 155.750 C 158.379 156.392,158.114 157.554,157.905 158.333 C 157.696 159.112,157.404 160.350,157.257 161.083 C 157.109 161.817,156.858 162.604,156.698 162.833 C 155.950 163.909,154.872 168.312,154.332 172.500 C 154.099 174.306,153.906 175.558,153.588 177.333 C 153.448 178.112,153.332 179.125,153.330 179.583 C 153.328 180.042,153.211 180.904,153.071 181.500 C 152.602 183.483,151.839 189.077,151.831 190.583 C 151.829 191.042,151.715 192.017,151.579 192.750 C 151.442 193.483,151.262 194.688,151.179 195.426 C 150.958 197.383,150.823 198.028,150.524 198.545 C 150.317 198.903,150.300 199.075,150.446 199.309 C 150.631 199.606,150.313 202.807,149.847 205.333 C 149.754 205.838,149.647 206.475,149.609 206.750 C 149.571 207.025,149.388 208.000,149.202 208.917 C 148.883 210.492,148.769 211.153,148.320 214.042 C 148.217 214.707,148.064 215.470,147.981 215.739 C 147.810 216.291,147.221 219.522,146.991 221.167 C 146.812 222.452,146.696 223.091,146.024 226.500 C 145.214 230.613,145.159 230.872,144.912 231.750 C 144.783 232.208,144.566 233.296,144.430 234.167 C 144.010 236.842,143.542 239.180,143.111 240.750 C 142.885 241.575,142.587 242.662,142.449 243.167 C 141.811 245.499,141.438 247.763,140.993 252.000 C 140.711 254.694,140.712 254.691,139.164 260.417 C 138.965 261.150,138.659 262.537,138.483 263.500 C 138.181 265.158,137.973 266.174,137.665 267.500 C 137.196 269.526,136.867 271.823,136.654 274.577 C 136.561 275.772,136.420 276.975,136.339 277.250 C 136.198 277.733,135.861 279.660,135.492 282.083 C 135.395 282.725,135.245 283.625,135.161 284.083 C 135.076 284.542,134.925 285.704,134.826 286.667 C 134.726 287.629,134.527 288.939,134.384 289.577 C 133.549 293.300,134.502 299.165,136.377 301.837 C 138.798 305.288,147.012 306.868,151.696 304.783 C 152.959 304.222,154.056 303.192,154.315 302.327 C 154.428 301.953,154.764 301.369,155.063 301.031 C 156.075 299.888,157.257 297.107,157.414 295.500 C 157.519 294.433,157.743 293.263,158.186 291.474 C 158.450 290.405,158.667 289.332,158.667 289.089 C 158.667 288.846,158.735 288.333,158.818 287.949 C 158.902 287.564,159.056 286.725,159.161 286.083 C 159.266 285.442,159.454 284.429,159.579 283.833 C 160.180 280.960,160.528 279.364,160.674 278.814 C 160.761 278.483,160.833 278.010,160.833 277.765 C 160.833 277.234,161.226 275.478,161.657 274.083 C 162.328 271.908,162.784 268.714,162.916 265.250 C 163.064 261.372,163.131 260.420,163.305 259.737 C 163.396 259.377,163.555 258.296,163.659 257.333 C 163.762 256.371,163.918 254.983,164.005 254.250 C 164.092 253.517,164.171 252.167,164.180 251.250 C 164.195 249.667,164.479 247.743,164.832 246.833 C 164.921 246.604,165.057 245.517,165.134 244.417 C 165.217 243.230,165.382 242.179,165.539 241.833 C 165.985 240.853,166.145 240.156,166.338 238.339 C 166.441 237.380,166.566 236.529,166.616 236.447 C 166.666 236.366,166.772 235.763,166.850 235.108 C 166.982 234.011,167.278 232.372,167.683 230.500 C 167.772 230.088,167.915 228.400,168.000 226.750 C 168.085 225.100,168.199 223.505,168.252 223.206 L 168.349 222.662 169.133 223.192 C 169.564 223.484,170.254 224.017,170.667 224.376 C 172.130 225.652,172.271 225.769,172.924 226.252 C 174.136 227.150,175.680 228.738,176.492 229.923 C 176.934 230.568,177.782 231.600,178.376 232.215 C 178.970 232.829,179.635 233.595,179.853 233.915 C 180.071 234.236,180.306 234.498,180.375 234.499 C 180.444 234.499,180.500 234.574,180.500 234.665 C 180.500 234.842,180.527 234.877,182.167 236.828 C 183.358 238.245,183.521 238.448,184.243 239.420 C 184.514 239.785,184.796 240.108,184.868 240.139 C 184.941 240.169,185.000 240.301,185.000 240.431 C 185.000 240.560,185.062 240.667,185.139 240.667 C 185.215 240.667,185.383 240.873,185.512 241.125 C 185.642 241.377,186.067 242.030,186.457 242.575 C 186.847 243.120,187.167 243.646,187.167 243.743 C 187.167 243.841,187.354 244.122,187.583 244.370 C 188.175 245.007,190.021 248.270,191.382 251.083 C 191.560 251.450,191.794 251.862,191.902 252.000 C 192.081 252.227,192.696 253.583,192.997 254.417 C 193.350 255.390,195.756 259.913,197.121 262.167 C 198.903 265.111,199.264 265.649,200.901 267.810 C 201.551 268.667,202.158 269.488,202.250 269.633 C 202.342 269.778,202.674 270.314,202.989 270.824 C 203.304 271.333,203.666 271.854,203.792 271.982 C 203.919 272.109,204.147 272.409,204.298 272.648 C 205.192 274.060,207.802 277.000,208.160 277.000 C 208.255 277.000,208.333 277.064,208.333 277.143 C 208.333 277.277,209.783 278.301,210.333 278.555 C 210.471 278.618,210.808 278.814,211.083 278.990 C 211.358 279.165,211.677 279.314,211.791 279.321 C 211.905 279.328,212.580 279.603,213.291 279.932 C 215.269 280.847,219.455 281.072,222.327 280.418 C 225.126 279.780,225.456 279.683,226.572 279.170 C 228.272 278.389,230.403 277.353,230.667 277.179 C 230.804 277.088,231.629 276.594,232.500 276.080 C 234.354 274.986,235.968 273.399,237.097 271.563 C 237.932 270.203,238.447 269.520,239.192 268.782 C 239.636 268.342,240.000 267.916,240.000 267.836 C 240.000 267.756,240.094 267.591,240.209 267.470 C 240.801 266.845,242.833 263.010,242.833 262.518 C 242.833 262.414,242.904 262.199,242.990 262.039 C 244.636 259.005,245.585 255.269,246.006 250.167 C 246.108 248.929,246.270 247.317,246.365 246.583 C 246.461 245.850,246.601 243.938,246.677 242.333 C 246.753 240.729,246.863 239.150,246.922 238.824 C 247.067 238.020,246.665 237.717,244.708 237.155 C 244.410 237.070,243.923 236.929,243.625 236.843 C 243.327 236.756,242.558 236.536,241.917 236.353 C 241.275 236.170,240.262 235.835,239.667 235.609 C 239.071 235.383,238.208 235.065,237.750 234.902 C 237.292 234.739,236.542 234.439,236.083 234.236 C 235.625 234.032,234.830 233.743,234.318 233.595 C 233.805 233.446,233.242 233.217,233.068 233.084 C 232.066 232.327,231.689 232.994,232.074 234.841 C 232.915 238.873,231.622 246.377,229.702 248.608 C 229.453 248.896,229.063 249.364,228.833 249.648 C 226.168 252.943,222.793 252.406,219.583 248.175 C 219.217 247.692,218.839 247.211,218.744 247.106 C 218.649 247.002,218.349 246.617,218.078 246.250 C 217.807 245.883,217.547 245.546,217.501 245.500 C 217.455 245.454,217.144 245.079,216.811 244.667 C 216.478 244.254,216.028 243.725,215.811 243.491 C 215.100 242.724,214.065 241.269,213.507 240.250 C 212.759 238.885,212.289 238.099,212.159 238.000 C 211.982 237.865,210.912 236.221,209.229 233.500 C 208.691 232.629,207.800 231.249,207.250 230.433 C 206.700 229.617,205.920 228.455,205.518 227.850 C 205.115 227.245,204.735 226.713,204.673 226.667 C 204.612 226.621,204.269 226.133,203.911 225.583 C 203.554 225.033,203.215 224.546,203.158 224.500 C 203.101 224.454,202.986 224.296,202.902 224.149 C 202.670 223.742,201.679 222.567,200.750 221.598 C 200.292 221.120,199.350 220.134,198.658 219.406 C 196.000 216.613,193.860 214.845,191.083 213.148 C 189.755 212.336,189.111 211.918,187.304 210.698 C 186.601 210.222,185.979 209.833,185.922 209.833 C 185.789 209.833,184.193 208.641,183.715 208.185 C 183.513 207.992,183.307 207.833,183.259 207.833 C 183.210 207.833,183.038 207.725,182.877 207.592 C 182.715 207.460,182.404 207.210,182.184 207.038 L 181.784 206.724 183.100 206.194 C 183.824 205.903,184.511 205.665,184.627 205.666 C 184.827 205.667,184.989 205.598,185.875 205.139 C 186.081 205.032,186.625 204.757,187.083 204.529 C 187.542 204.300,188.179 203.949,188.500 203.749 C 188.821 203.548,189.571 203.124,190.167 202.804 C 192.269 201.678,193.929 200.785,195.000 200.203 C 195.596 199.879,196.364 199.364,196.707 199.059 C 197.049 198.754,198.024 198.165,198.873 197.751 C 200.552 196.932,202.433 195.599,203.951 194.151 C 204.482 193.644,205.335 192.954,205.847 192.617 C 208.032 191.179,212.791 186.212,213.579 184.547 C 213.829 184.018,214.432 183.008,214.918 182.302 C 215.404 181.597,216.038 180.407,216.326 179.659 C 216.615 178.910,217.031 177.950,217.250 177.524 C 217.469 177.098,217.851 176.150,218.099 175.417 C 218.347 174.683,218.857 173.633,219.233 173.083 C 219.609 172.532,220.027 171.857,220.161 171.583 C 220.295 171.308,220.828 170.446,221.345 169.667 C 222.631 167.728,222.816 167.422,223.509 166.083 C 223.841 165.442,224.672 164.054,225.357 163.000 C 226.042 161.946,226.817 160.558,227.080 159.917 C 227.343 159.275,227.658 158.602,227.779 158.421 C 227.901 158.240,228.000 157.986,228.000 157.856 C 228.000 157.726,228.596 156.411,229.325 154.935 C 230.054 153.458,230.771 151.875,230.919 151.417 C 231.067 150.958,231.361 150.208,231.572 149.750 C 232.138 148.519,232.834 146.123,232.735 145.745 C 232.655 145.439,232.838 144.633,233.454 142.583 C 233.591 142.125,233.762 141.412,233.833 141.000 C 233.943 140.362,234.097 139.778,234.579 138.167 C 234.620 138.029,234.804 137.354,234.988 136.667 C 235.333 135.379,235.671 134.376,235.861 134.082 C 235.921 133.990,236.020 133.615,236.081 133.249 C 236.142 132.883,236.253 132.396,236.327 132.167 C 236.401 131.938,236.555 131.412,236.670 131.000 C 236.784 130.587,237.047 129.725,237.253 129.083 C 237.669 127.785,237.907 126.949,238.175 125.833 C 238.437 124.745,238.657 124.072,239.209 122.667 C 239.940 120.809,240.147 120.334,240.622 119.417 C 240.860 118.958,241.537 117.646,242.128 116.500 C 242.719 115.354,243.253 114.379,243.315 114.333 C 243.378 114.287,243.821 113.705,244.301 113.040 C 245.750 111.029,247.001 109.728,250.250 106.853 C 251.350 105.880,252.410 104.933,252.606 104.750 C 253.268 104.131,255.409 102.680,256.417 102.167 C 256.600 102.074,257.200 101.738,257.750 101.420 C 258.300 101.102,258.917 100.767,259.121 100.676 C 259.326 100.585,260.301 100.049,261.288 99.484 C 262.275 98.919,263.440 98.261,263.875 98.023 C 264.310 97.784,264.667 97.471,264.667 97.328 C 264.667 97.030,263.501 95.833,263.211 95.833 C 263.105 95.833,262.733 95.568,262.384 95.244 C 262.035 94.919,261.469 94.493,261.125 94.296 C 260.781 94.100,260.500 93.877,260.500 93.803 C 260.500 93.728,260.421 93.667,260.325 93.667 C 260.229 93.667,259.740 93.404,259.239 93.083 C 258.737 92.763,258.267 92.500,258.195 92.500 C 258.122 92.500,257.917 92.365,257.740 92.201 C 257.562 92.037,256.929 91.609,256.333 91.251 C 255.737 90.893,255.137 90.512,255.000 90.404 C 254.862 90.296,254.225 89.930,253.583 89.591 C 252.942 89.252,251.967 88.718,251.417 88.405 C 250.867 88.091,250.079 87.666,249.667 87.459 C 249.254 87.253,248.879 87.038,248.833 86.982 C 248.787 86.926,248.513 86.759,248.224 86.610 C 247.935 86.462,247.597 86.246,247.474 86.129 C 247.351 86.012,246.709 85.557,246.047 85.118 C 245.386 84.679,244.803 84.253,244.752 84.170 C 244.375 83.559,243.394 83.425,241.667 83.747 M245.833 86.524 C 247.162 87.450,248.438 88.291,248.667 88.395 C 251.120 89.504,259.161 94.407,262.299 96.708 L 263.182 97.355 260.810 98.523 C 253.133 102.303,245.744 108.241,242.873 112.939 C 242.306 113.868,241.727 114.672,241.587 114.725 C 241.448 114.779,241.333 115.012,241.333 115.243 C 241.333 115.474,240.916 116.334,240.406 117.155 C 239.504 118.606,238.044 121.807,237.641 123.218 C 237.531 123.602,237.390 123.992,237.326 124.083 C 237.262 124.175,237.119 124.662,237.008 125.167 C 236.767 126.259,236.567 126.960,235.768 129.506 C 235.436 130.563,235.057 131.913,234.926 132.506 C 234.795 133.098,234.460 134.258,234.182 135.083 C 233.904 135.908,233.600 136.883,233.506 137.250 C 233.413 137.617,233.192 138.404,233.017 139.000 C 232.841 139.596,232.536 140.758,232.338 141.583 C 232.141 142.408,231.909 143.346,231.823 143.667 C 231.736 143.987,231.444 145.228,231.174 146.423 C 230.903 147.618,230.453 149.133,230.174 149.789 C 229.895 150.445,229.667 151.064,229.667 151.164 C 229.667 151.264,229.132 152.412,228.479 153.715 C 227.826 155.017,226.858 157.117,226.327 158.381 C 225.691 159.900,224.939 161.320,224.111 162.568 C 223.423 163.606,222.559 165.047,222.193 165.770 C 221.827 166.492,220.903 168.038,220.139 169.206 C 217.723 172.898,217.449 173.382,216.900 174.934 C 216.604 175.769,216.141 176.894,215.871 177.434 C 215.601 177.975,215.248 178.819,215.087 179.310 C 214.926 179.802,214.402 180.777,213.923 181.477 C 213.445 182.177,212.760 183.308,212.401 183.990 C 211.595 185.526,207.303 189.957,204.833 191.804 C 203.963 192.455,202.838 193.371,202.333 193.840 C 201.531 194.587,198.336 196.833,198.077 196.833 C 198.025 196.833,197.217 197.313,196.283 197.899 C 195.348 198.485,193.369 199.608,191.884 200.396 C 190.399 201.184,188.637 202.151,187.967 202.546 C 186.512 203.403,184.833 204.213,183.917 204.500 C 183.550 204.614,182.866 204.881,182.397 205.092 C 181.928 205.303,181.230 205.560,180.847 205.663 C 179.621 205.993,179.716 206.803,181.107 207.866 C 181.623 208.260,182.579 209.003,183.231 209.515 C 183.883 210.027,185.129 210.896,186.000 211.445 C 193.701 216.297,194.327 216.782,198.589 221.192 C 200.915 223.599,203.714 227.250,205.430 230.118 C 205.606 230.411,206.265 231.424,206.894 232.368 C 209.422 236.156,211.979 240.136,212.477 241.055 C 213.119 242.241,213.543 242.820,215.180 244.750 C 215.880 245.575,217.040 247.031,217.758 247.987 C 221.756 253.303,224.396 254.315,228.109 251.958 C 229.182 251.278,231.189 249.070,231.412 248.325 C 231.480 248.100,231.630 247.764,231.747 247.578 C 232.844 245.833,233.541 241.829,233.469 237.695 L 233.417 234.681 233.833 234.781 C 234.063 234.836,234.737 235.085,235.333 235.333 C 235.929 235.581,236.679 235.879,237.000 235.995 C 237.321 236.112,238.183 236.430,238.917 236.702 C 239.650 236.974,241.262 237.492,242.500 237.853 C 245.480 238.721,245.710 238.818,245.574 239.149 C 245.513 239.296,245.399 240.842,245.320 242.583 C 245.193 245.383,245.098 246.638,244.765 249.917 C 244.719 250.375,244.636 251.237,244.581 251.833 C 244.329 254.580,243.405 258.099,242.332 260.398 C 241.966 261.184,241.667 261.904,241.667 262.000 C 241.667 263.019,238.995 267.220,237.310 268.851 C 236.372 269.759,236.000 270.235,236.000 270.529 C 236.000 271.100,233.940 273.611,232.907 274.300 C 230.220 276.093,225.172 278.555,223.667 278.809 C 223.162 278.894,222.150 279.093,221.417 279.252 C 220.286 279.498,219.961 279.510,219.277 279.335 C 218.685 279.183,218.422 279.178,218.286 279.314 C 217.505 280.095,213.055 278.797,210.213 276.958 C 208.291 275.714,206.146 273.232,203.352 269.016 C 202.781 268.154,202.065 267.142,201.760 266.766 C 201.153 266.018,198.667 262.396,198.667 262.260 C 198.667 262.214,198.183 261.393,197.592 260.437 C 197.001 259.481,196.226 258.110,195.871 257.391 C 195.515 256.672,195.137 255.933,195.030 255.750 C 194.924 255.567,194.452 254.517,193.983 253.417 C 193.513 252.317,193.074 251.342,193.006 251.250 C 192.938 251.158,192.468 250.296,191.960 249.333 C 191.452 248.371,190.778 247.096,190.462 246.500 C 189.952 245.539,188.814 243.747,187.444 241.750 C 187.192 241.383,186.714 240.671,186.382 240.167 C 185.760 239.224,184.776 237.959,183.160 236.023 C 182.652 235.414,181.803 234.338,181.274 233.631 C 180.745 232.923,179.809 231.798,179.194 231.131 C 178.579 230.463,177.867 229.593,177.612 229.198 C 176.053 226.781,169.401 221.333,168.009 221.333 C 167.087 221.333,167.018 221.532,166.821 224.790 C 166.596 228.487,166.418 230.192,166.014 232.500 C 165.331 236.406,165.168 237.442,165.066 238.500 C 165.008 239.096,164.751 240.230,164.495 241.020 C 164.200 241.929,163.988 243.030,163.917 244.020 C 163.855 244.880,163.655 246.371,163.471 247.333 C 163.287 248.296,163.105 249.533,163.065 250.083 C 162.851 253.060,162.634 255.557,162.495 256.667 C 161.940 261.074,161.808 262.390,161.659 265.000 C 161.390 269.736,161.115 271.715,160.485 273.464 C 160.193 274.272,159.936 275.416,159.500 277.833 C 159.304 278.922,158.960 280.611,158.584 282.333 C 158.288 283.689,157.948 285.558,157.569 287.917 C 157.436 288.742,157.220 289.942,157.088 290.583 C 156.956 291.225,156.728 292.425,156.581 293.250 C 155.930 296.914,155.502 298.094,153.859 300.750 C 151.909 303.903,150.850 304.418,146.333 304.414 C 143.672 304.411,143.345 304.378,142.604 304.039 C 142.157 303.834,141.724 303.667,141.642 303.667 C 141.432 303.667,138.846 302.404,138.280 302.026 C 137.096 301.233,135.953 298.736,135.676 296.333 C 135.257 292.700,135.258 292.652,135.839 288.500 C 135.935 287.813,136.079 286.725,136.160 286.083 C 136.241 285.442,136.422 284.279,136.562 283.500 C 136.703 282.721,136.973 281.108,137.162 279.917 C 137.351 278.725,137.616 277.112,137.750 276.333 C 137.884 275.554,137.994 274.579,137.995 274.167 C 137.997 273.002,138.478 269.842,139.085 267.000 C 139.388 265.579,139.686 264.079,139.747 263.667 C 139.901 262.623,140.263 261.133,141.009 258.469 C 141.698 256.008,142.044 254.130,142.337 251.250 C 142.669 248.002,143.309 244.558,143.996 242.333 C 144.264 241.463,144.743 239.438,145.058 237.833 C 145.567 235.246,145.788 234.061,146.345 230.919 C 146.426 230.461,146.564 229.899,146.651 229.669 C 146.839 229.170,147.119 227.708,148.690 219.000 C 148.980 217.396,149.279 215.746,149.356 215.333 C 149.432 214.921,149.604 213.946,149.737 213.167 C 149.964 211.833,150.160 210.750,150.489 209.000 C 151.192 205.263,151.741 201.461,152.341 196.167 C 152.419 195.479,152.637 194.096,152.825 193.093 C 153.013 192.090,153.169 190.852,153.172 190.343 C 153.182 188.620,153.722 184.567,154.216 182.500 C 154.359 181.904,154.526 180.817,154.588 180.083 C 154.650 179.350,154.810 178.037,154.943 177.167 C 155.281 174.963,155.449 173.806,155.664 172.187 C 156.137 168.623,157.041 164.857,157.588 164.167 C 157.985 163.666,158.322 162.410,159.489 157.083 C 159.750 155.892,160.117 154.279,160.304 153.500 C 160.492 152.721,160.774 151.371,160.931 150.500 C 161.089 149.629,161.289 148.824,161.377 148.711 C 161.803 148.161,161.502 143.603,160.956 142.333 C 160.421 141.089,159.015 139.363,157.776 138.431 C 157.098 137.921,156.445 137.384,156.325 137.239 C 154.798 135.400,147.784 134.965,144.417 136.501 C 142.837 137.221,142.156 137.828,140.598 139.901 C 139.797 140.968,138.733 142.307,138.234 142.878 C 136.738 144.588,134.831 149.211,134.505 151.917 C 133.990 156.192,133.797 157.692,133.658 158.500 C 133.571 159.004,133.382 160.204,133.239 161.167 C 133.096 162.129,132.881 163.068,132.761 163.254 C 132.475 163.694,132.373 164.498,132.165 167.917 C 132.071 169.475,131.924 171.237,131.839 171.833 C 131.571 173.709,131.149 178.327,131.030 180.667 L 130.917 182.917 129.500 182.869 C 127.699 182.809,123.841 182.507,123.460 182.396 C 122.725 182.183,120.931 177.123,120.188 173.167 C 119.482 169.410,119.397 164.561,119.971 160.750 C 120.164 159.467,120.367 157.929,120.423 157.333 C 120.833 152.925,122.973 144.952,124.739 141.250 C 125.220 140.242,125.716 139.154,125.841 138.833 C 126.105 138.152,127.724 135.402,128.146 134.917 C 128.305 134.733,128.841 133.908,129.336 133.083 C 129.831 132.258,130.473 131.246,130.764 130.833 C 131.054 130.421,131.408 129.856,131.549 129.577 C 132.295 128.105,134.858 125.839,137.583 124.244 C 138.500 123.707,139.850 122.881,140.583 122.409 C 141.317 121.936,142.442 121.266,143.083 120.921 C 143.725 120.575,144.325 120.236,144.417 120.167 C 144.635 120.003,146.158 119.486,148.333 118.836 C 149.296 118.549,150.871 118.053,151.833 117.735 C 155.978 116.366,162.000 116.227,166.000 117.410 C 166.504 117.559,167.212 117.756,167.574 117.848 C 170.022 118.474,175.661 122.255,177.074 124.220 C 177.482 124.786,178.034 125.453,178.301 125.701 C 182.186 129.304,183.391 138.089,181.211 146.917 C 180.939 148.017,180.710 149.097,180.700 149.318 C 180.691 149.539,180.534 150.477,180.352 151.402 C 180.170 152.327,179.938 153.758,179.838 154.583 C 179.737 155.408,179.545 156.871,179.411 157.833 C 179.277 158.796,179.050 160.633,178.906 161.917 C 178.469 165.811,178.380 166.375,178.019 167.500 C 177.827 168.096,177.670 168.833,177.669 169.138 C 177.668 169.443,177.519 170.531,177.338 171.555 C 177.158 172.579,177.014 173.754,177.019 174.167 C 177.025 174.579,176.866 175.929,176.668 177.167 C 176.469 178.404,176.244 179.829,176.168 180.333 C 176.092 180.838,175.870 182.000,175.674 182.917 C 175.226 185.011,174.938 186.487,174.583 188.500 C 174.430 189.371,174.166 190.571,173.997 191.167 C 173.719 192.147,173.601 192.919,173.649 193.441 C 173.742 194.446,178.610 191.110,184.000 186.348 C 185.054 185.417,186.554 184.100,187.333 183.421 C 188.112 182.743,189.350 181.534,190.083 180.736 C 190.817 179.937,191.916 178.880,192.525 178.386 C 193.159 177.873,193.759 177.224,193.925 176.869 C 194.245 176.189,195.585 174.216,196.500 173.081 C 196.821 172.682,197.342 171.995,197.657 171.553 C 197.973 171.111,198.394 170.563,198.593 170.333 C 199.881 168.849,202.076 163.645,203.182 159.451 C 203.540 158.095,203.942 156.773,204.077 156.513 C 204.211 156.253,204.501 155.563,204.721 154.979 C 205.221 153.651,205.564 152.889,207.103 149.700 C 207.780 148.298,208.333 147.121,208.333 147.085 C 208.333 147.049,208.640 146.359,209.015 145.552 C 209.713 144.048,209.947 143.457,210.496 141.805 C 210.669 141.285,210.920 140.648,211.053 140.388 C 211.186 140.129,211.384 139.467,211.493 138.917 C 212.113 135.774,212.594 134.008,213.286 132.333 C 214.672 128.979,215.441 126.100,216.422 120.583 C 216.971 117.493,217.970 113.849,218.678 112.355 C 219.052 111.564,219.586 110.242,219.865 109.417 C 221.323 105.100,223.192 100.879,224.625 98.667 C 226.377 95.964,228.720 93.443,231.833 90.910 C 232.887 90.052,234.027 89.118,234.365 88.833 C 236.607 86.950,240.980 84.955,243.083 84.857 C 243.267 84.848,244.504 85.599,245.833 86.524 " stroke="none" fill="#fc4c7c" fill-rule="evenodd"/><path id="path1" d="M241.833 85.153 C 239.407 85.717,235.942 87.547,233.921 89.333 C 233.350 89.837,232.486 90.550,232.001 90.917 C 230.882 91.762,229.539 92.907,228.998 93.476 C 226.700 95.893,224.350 99.007,223.363 100.941 C 222.707 102.228,220.808 106.971,220.003 109.333 C 219.706 110.204,219.160 111.554,218.790 112.333 C 218.420 113.112,217.972 114.313,217.794 115.000 C 217.617 115.688,217.363 116.662,217.230 117.167 C 217.004 118.027,216.919 118.448,216.500 120.750 C 215.484 126.340,215.220 127.444,214.289 130.000 C 213.972 130.871,213.524 132.033,213.294 132.583 C 212.629 134.174,211.969 136.673,211.579 139.076 C 211.520 139.438,211.340 140.000,211.178 140.326 C 211.016 140.651,210.681 141.536,210.434 142.292 C 210.187 143.048,209.688 144.303,209.326 145.080 C 208.963 145.857,208.667 146.540,208.667 146.598 C 208.667 146.657,208.148 147.764,207.515 149.060 C 206.331 151.483,204.833 154.761,204.833 154.931 C 204.833 154.984,204.601 155.557,204.316 156.205 C 204.032 156.853,203.618 158.141,203.396 159.067 C 202.968 160.853,202.528 162.308,202.332 162.583 C 202.267 162.675,202.168 162.989,202.113 163.280 C 201.807 164.899,199.422 169.378,197.516 171.916 C 195.021 175.237,194.574 175.869,194.198 176.606 C 194.006 176.981,193.490 177.614,193.050 178.012 C 192.610 178.411,191.313 179.678,190.167 180.827 C 189.021 181.976,187.708 183.216,187.250 183.581 C 186.792 183.946,186.117 184.550,185.750 184.923 C 184.106 186.593,179.878 189.961,175.193 193.332 C 173.745 194.373,173.221 193.716,173.800 191.583 C 174.157 190.269,174.314 189.530,174.596 187.833 C 174.741 186.963,175.000 185.612,175.172 184.833 C 175.621 182.804,175.947 181.102,176.165 179.667 C 176.269 178.979,176.425 178.004,176.512 177.500 C 176.871 175.423,177.004 174.307,176.910 174.155 C 176.817 174.005,177.280 170.888,177.432 170.643 C 177.470 170.581,177.511 170.093,177.523 169.558 C 177.536 169.024,177.691 168.173,177.868 167.668 C 178.185 166.767,178.708 163.551,178.913 161.250 C 179.081 159.363,179.815 153.899,180.168 151.917 C 180.347 150.908,180.572 149.558,180.669 148.917 C 180.839 147.787,181.100 146.669,181.606 144.900 C 183.444 138.467,181.791 129.523,178.005 125.417 C 177.582 124.958,177.029 124.301,176.775 123.956 C 176.133 123.085,173.437 121.048,170.917 119.530 C 168.798 118.254,168.745 118.233,164.917 117.232 C 162.100 116.495,154.762 116.617,153.156 117.427 C 152.922 117.546,151.834 117.907,150.740 118.230 C 149.645 118.553,147.962 119.053,147.000 119.340 C 145.266 119.859,141.841 121.564,140.167 122.744 C 139.754 123.034,138.486 123.821,137.348 124.492 C 133.934 126.504,132.572 128.007,129.091 133.602 C 128.629 134.346,127.882 135.508,127.432 136.185 C 126.982 136.863,126.394 137.904,126.125 138.500 C 125.856 139.096,125.306 140.258,124.903 141.083 C 123.771 143.403,122.740 146.452,122.085 149.417 C 121.963 149.967,121.716 150.979,121.536 151.667 C 120.925 153.992,120.036 160.255,119.788 163.978 C 119.404 169.756,120.386 175.860,122.441 180.463 C 122.657 180.947,122.835 181.397,122.837 181.463 C 122.851 181.920,123.485 182.324,124.333 182.418 C 125.040 182.497,125.183 182.478,124.958 182.335 C 124.350 181.949,124.691 180.833,125.417 180.833 C 126.123 180.833,126.445 181.728,125.902 182.179 C 125.493 182.518,125.958 182.620,128.543 182.757 L 130.803 182.877 130.878 181.063 C 130.959 179.126,131.238 175.877,131.500 173.833 C 131.847 171.121,132.003 169.464,132.174 166.667 C 132.283 164.877,132.435 163.621,132.565 163.417 C 132.872 162.937,133.009 162.405,133.165 161.083 C 133.240 160.442,133.417 159.167,133.556 158.250 C 133.792 156.703,133.883 156.035,134.348 152.417 C 134.554 150.813,135.025 148.953,135.491 147.898 C 135.679 147.472,135.833 147.057,135.833 146.975 C 135.833 146.696,137.129 144.085,137.523 143.570 C 137.740 143.287,138.254 142.661,138.667 142.177 C 139.896 140.736,140.237 140.304,141.041 139.163 C 143.319 135.936,149.136 134.425,153.667 135.885 C 156.928 136.936,160.508 140.290,161.265 143.006 C 161.647 144.373,161.778 148.130,161.466 148.757 C 161.331 149.028,161.128 149.813,161.016 150.500 C 160.903 151.188,160.751 152.012,160.678 152.333 C 160.604 152.654,160.348 153.779,160.108 154.833 C 159.869 155.887,159.475 157.575,159.234 158.583 C 158.992 159.592,158.730 160.792,158.651 161.250 C 158.482 162.226,157.822 164.167,157.659 164.167 C 157.596 164.167,157.417 164.598,157.259 165.125 C 157.102 165.652,156.911 166.271,156.834 166.500 C 156.657 167.031,156.088 170.087,155.764 172.250 C 155.626 173.167,155.367 174.854,155.187 176.000 C 155.008 177.146,154.775 178.983,154.669 180.083 C 154.563 181.183,154.369 182.458,154.238 182.917 C 153.814 184.395,153.489 186.688,153.328 189.333 C 153.241 190.754,153.060 192.479,152.924 193.167 C 152.671 194.453,152.097 198.661,151.832 201.167 C 151.588 203.471,151.355 205.164,151.260 205.318 C 151.211 205.397,151.095 205.939,151.002 206.522 C 150.909 207.106,150.755 207.996,150.659 208.500 C 150.563 209.004,150.417 209.829,150.334 210.333 C 150.118 211.653,149.680 214.126,149.509 215.000 C 149.082 217.175,148.106 222.611,147.669 225.250 C 147.593 225.708,147.412 226.646,147.266 227.333 C 147.120 228.021,147.000 228.775,147.000 229.008 C 147.000 229.242,146.912 229.522,146.804 229.629 C 146.696 229.737,146.555 230.183,146.490 230.621 C 146.426 231.059,146.256 232.017,146.114 232.750 C 145.971 233.483,145.657 235.171,145.415 236.500 C 144.879 239.446,144.409 241.451,143.969 242.667 C 143.787 243.171,143.574 243.958,143.495 244.417 C 143.417 244.875,143.202 246.112,143.018 247.167 C 142.834 248.221,142.604 249.871,142.506 250.833 C 142.169 254.153,141.936 255.421,141.129 258.333 C 140.302 261.319,140.013 262.540,139.839 263.785 C 139.747 264.446,139.530 265.533,139.357 266.202 C 138.755 268.525,138.267 271.624,138.002 274.808 C 137.923 275.756,137.707 277.369,137.522 278.391 C 137.338 279.413,137.101 280.813,136.996 281.500 C 136.892 282.188,136.703 283.275,136.577 283.917 C 136.361 285.020,136.037 287.385,135.640 290.750 C 134.948 296.623,136.401 301.026,139.553 302.611 C 143.743 304.717,147.980 305.043,151.186 303.506 C 153.628 302.335,155.721 298.040,156.672 292.250 C 156.777 291.608,156.931 290.783,157.014 290.417 C 157.097 290.050,157.316 288.850,157.500 287.750 C 158.082 284.285,158.325 282.991,158.909 280.250 C 159.222 278.783,159.571 277.021,159.684 276.333 C 159.798 275.646,160.106 274.408,160.369 273.583 C 160.971 271.698,161.272 269.589,161.501 265.667 C 161.600 263.971,161.791 261.721,161.926 260.667 C 162.432 256.701,162.833 252.629,162.833 251.451 C 162.833 250.780,163.015 249.298,163.238 248.157 C 163.460 247.017,163.724 245.200,163.824 244.120 C 163.935 242.917,164.164 241.685,164.415 240.938 C 164.640 240.267,164.901 239.013,164.994 238.151 C 165.087 237.289,165.234 236.283,165.320 235.917 C 165.405 235.550,165.565 234.575,165.674 233.750 C 165.783 232.925,166.011 231.650,166.180 230.917 C 166.349 230.183,166.529 228.646,166.581 227.500 C 166.785 222.938,166.997 221.506,167.484 221.398 C 167.722 221.345,168.048 221.267,168.209 221.223 C 168.578 221.123,170.136 222.062,171.346 223.113 C 172.260 223.907,172.715 224.288,174.833 226.040 C 175.429 226.532,176.384 227.531,176.956 228.259 C 177.527 228.988,178.540 230.212,179.206 230.980 C 179.872 231.749,180.867 232.956,181.417 233.663 C 181.967 234.370,183.174 235.885,184.100 237.030 C 185.026 238.175,186.357 239.968,187.058 241.014 C 187.759 242.061,188.515 243.179,188.739 243.500 C 189.571 244.694,191.425 248.028,193.281 251.667 C 193.585 252.262,194.067 253.307,194.351 253.988 C 195.222 256.075,196.687 258.824,198.567 261.898 C 198.742 262.183,198.978 262.590,199.091 262.802 C 199.359 263.306,200.282 264.616,201.848 266.720 C 202.544 267.654,203.482 268.992,203.932 269.692 C 207.031 274.513,209.678 277.012,213.083 278.333 C 213.633 278.547,214.158 278.772,214.250 278.835 C 214.723 279.157,216.053 279.355,217.183 279.272 C 218.913 279.144,218.821 279.144,219.833 279.260 C 220.497 279.336,221.135 279.269,222.148 279.016 C 222.917 278.824,223.724 278.667,223.941 278.667 C 224.677 278.667,228.772 276.701,231.833 274.878 C 233.708 273.762,235.833 271.489,235.833 270.600 C 235.833 270.256,236.177 269.812,237.303 268.701 C 239.183 266.844,240.926 264.068,241.666 261.750 C 241.783 261.383,242.064 260.714,242.291 260.262 C 243.457 257.936,244.337 254.106,244.667 249.917 C 244.776 248.542,244.901 247.304,244.947 247.167 C 244.992 247.029,245.096 245.304,245.180 243.333 C 245.263 241.362,245.376 239.553,245.431 239.312 C 245.525 238.899,245.475 238.858,244.557 238.586 C 244.022 238.427,243.021 238.125,242.333 237.914 C 241.646 237.703,240.933 237.492,240.750 237.445 C 240.258 237.317,238.045 236.534,237.441 236.273 C 236.359 235.807,233.836 234.833,233.711 234.833 C 233.639 234.833,233.608 235.951,233.642 237.317 C 233.740 241.333,232.987 245.582,231.815 247.635 C 231.642 247.938,231.500 248.292,231.500 248.421 C 231.500 248.842,229.277 251.276,228.250 251.980 C 224.670 254.433,222.062 253.577,218.233 248.691 C 217.417 247.650,215.987 245.895,215.055 244.790 C 213.986 243.524,212.974 242.098,212.317 240.932 C 211.744 239.915,210.969 238.671,210.593 238.167 C 209.745 237.028,208.667 235.396,208.667 235.253 C 208.667 235.153,205.163 229.862,202.816 226.417 C 199.398 221.399,194.676 217.026,188.417 213.082 C 187.958 212.793,187.058 212.215,186.417 211.797 C 185.775 211.379,185.078 210.950,184.869 210.843 C 184.659 210.736,183.909 210.179,183.202 209.607 C 182.495 209.034,181.556 208.319,181.115 208.018 C 179.980 207.243,179.463 205.966,180.205 205.770 C 180.855 205.598,181.832 205.251,182.417 204.984 C 182.783 204.817,183.629 204.485,184.295 204.248 C 184.961 204.010,186.274 203.382,187.212 202.851 C 188.149 202.321,190.209 201.199,191.789 200.358 C 193.368 199.518,195.281 198.428,196.039 197.936 C 196.797 197.444,197.733 196.882,198.119 196.687 C 199.151 196.166,201.625 194.409,202.583 193.516 C 203.042 193.089,203.904 192.373,204.500 191.925 C 207.580 189.609,211.558 185.541,212.331 183.917 C 212.462 183.642,213.029 182.704,213.591 181.833 C 214.154 180.963,214.781 179.800,214.986 179.250 C 215.191 178.700,215.613 177.713,215.924 177.057 C 216.235 176.401,216.651 175.389,216.848 174.807 C 217.160 173.890,217.538 173.134,218.380 171.750 C 218.492 171.567,219.194 170.479,219.940 169.333 C 220.687 168.188,221.707 166.500,222.207 165.583 C 222.708 164.667,223.617 163.154,224.228 162.223 C 224.873 161.240,225.685 159.688,226.162 158.527 C 226.615 157.426,227.504 155.488,228.139 154.221 C 228.774 152.954,229.408 151.579,229.549 151.167 C 229.690 150.754,229.960 150.057,230.150 149.618 C 230.339 149.179,230.686 148.016,230.920 147.035 C 231.154 146.053,231.566 144.387,231.836 143.333 C 232.106 142.279,232.373 141.192,232.431 140.917 C 232.489 140.642,232.742 139.667,232.993 138.750 C 233.245 137.833,233.547 136.675,233.666 136.175 C 233.784 135.675,234.045 134.888,234.245 134.425 C 234.446 133.962,234.702 133.133,234.816 132.583 C 234.929 132.033,235.271 130.796,235.576 129.833 C 236.474 126.995,236.833 125.756,236.833 125.493 C 236.833 124.544,238.947 119.420,240.208 117.309 C 240.735 116.428,241.167 115.551,241.167 115.360 C 241.167 115.169,241.346 114.842,241.565 114.632 C 241.784 114.422,242.400 113.537,242.934 112.667 C 243.961 110.991,245.734 109.024,248.176 106.852 C 251.062 104.286,252.035 103.541,254.417 102.076 C 255.425 101.456,256.662 100.680,257.167 100.351 C 257.671 100.022,258.308 99.644,258.583 99.510 C 258.858 99.377,259.962 98.839,261.035 98.315 L 262.986 97.362 262.410 96.923 L 261.833 96.483 261.833 96.875 C 261.833 97.320,261.550 97.667,261.187 97.667 C 261.052 97.667,260.088 98.210,259.045 98.875 C 258.002 99.540,256.872 100.233,256.533 100.417 C 256.194 100.600,255.857 100.844,255.783 100.958 C 255.597 101.250,254.917 101.218,254.658 100.907 C 254.344 100.527,254.647 99.814,255.252 99.512 C 256.102 99.087,259.333 97.012,259.333 96.891 C 259.333 96.849,258.940 96.640,258.458 96.427 C 257.268 95.899,256.887 95.464,257.137 94.916 C 257.352 94.443,257.670 94.395,258.308 94.739 C 261.686 96.561,261.913 96.393,258.750 94.413 C 257.650 93.724,256.188 92.798,255.500 92.356 C 254.813 91.914,252.900 90.813,251.250 89.910 C 248.515 88.413,244.592 85.926,243.739 85.147 C 243.338 84.781,243.435 84.781,241.833 85.153 M242.247 87.271 C 242.396 87.420,242.495 87.700,242.467 87.893 C 242.413 88.268,242.369 88.299,239.652 89.904 C 236.751 91.618,233.560 94.280,232.111 96.194 C 231.558 96.925,231.262 97.063,230.827 96.791 C 230.085 96.328,230.561 95.337,232.498 93.312 C 233.644 92.115,239.210 88.000,239.685 88.000 C 239.760 88.000,240.177 87.775,240.610 87.500 C 241.505 86.933,241.859 86.883,242.247 87.271 M228.905 98.595 C 229.536 99.226,229.069 100.059,228.136 99.970 C 227.653 99.923,227.577 99.851,227.533 99.396 C 227.446 98.505,228.310 98.001,228.905 98.595 M123.167 169.317 C 123.167 171.520,123.506 173.307,124.436 176.000 C 125.289 178.470,125.424 179.433,124.958 179.729 C 123.984 180.350,122.305 175.825,121.842 171.333 C 121.742 170.371,121.627 169.273,121.586 168.894 C 121.480 167.910,122.178 167.170,122.875 167.528 C 123.123 167.656,123.167 167.925,123.167 169.317 M235.842 239.682 C 236.168 240.292,235.625 241.167,234.921 241.167 C 234.447 241.167,234.150 239.916,234.533 239.533 C 234.863 239.204,235.633 239.291,235.842 239.682 M244.034 240.265 C 244.258 241.077,244.160 250.390,243.907 252.333 C 243.346 256.639,243.046 257.667,242.350 257.667 C 241.767 257.667,241.598 257.242,241.800 256.286 C 241.993 255.376,242.205 254.165,242.495 252.320 C 242.589 251.716,242.667 248.626,242.667 245.453 C 242.667 240.132,242.689 239.670,242.958 239.518 C 243.356 239.292,243.863 239.644,244.034 240.265 M235.551 242.671 C 236.104 243.460,234.453 248.135,232.904 250.167 C 231.984 251.373,229.990 253.282,229.425 253.497 C 228.293 253.927,227.908 252.778,228.958 252.101 C 231.394 250.529,233.349 247.368,234.173 243.667 C 234.477 242.299,235.017 241.909,235.551 242.671 M164.364 249.197 C 164.265 249.587,164.212 249.935,164.248 249.970 C 164.283 250.005,164.396 249.719,164.500 249.333 C 164.604 248.948,164.656 248.600,164.616 248.561 C 164.576 248.521,164.463 248.807,164.364 249.197 M202.275 263.583 C 202.864 264.683,203.670 265.921,204.064 266.333 C 204.459 266.746,205.367 267.855,206.081 268.799 C 207.966 271.288,211.738 274.500,212.776 274.500 C 213.233 274.500,213.721 275.164,213.564 275.574 C 213.310 276.235,212.012 276.147,211.167 275.413 C 210.938 275.213,210.262 274.703,209.667 274.278 C 209.071 273.854,208.286 273.235,207.922 272.904 C 207.558 272.572,207.140 272.215,206.992 272.109 C 206.845 272.003,206.057 271.054,205.243 270.000 C 204.428 268.946,203.366 267.640,202.883 267.099 C 202.127 266.252,200.552 263.566,200.109 262.369 C 199.925 261.872,200.258 261.467,200.796 261.533 C 201.129 261.574,201.398 261.947,202.275 263.583 M163.039 263.833 C 163.039 264.154,163.073 264.285,163.115 264.125 C 163.157 263.965,163.157 263.702,163.115 263.542 C 163.073 263.381,163.039 263.512,163.039 263.833 M138.695 287.609 C 139.083 287.960,139.078 288.407,138.667 290.333 C 137.893 293.955,138.509 296.792,140.429 298.450 C 141.369 299.261,141.515 299.628,141.071 300.071 C 140.586 300.557,140.115 300.375,139.054 299.292 C 137.202 297.401,136.320 294.367,136.813 291.583 C 137.610 287.083,137.761 286.764,138.695 287.609 M155.405 290.095 C 155.554 290.245,155.631 290.514,155.584 290.720 C 155.538 290.920,155.270 292.242,154.989 293.657 C 153.995 298.656,152.145 302.228,149.933 303.420 C 148.837 304.010,148.129 302.927,149.168 302.250 C 151.559 300.692,152.977 297.450,154.008 291.191 C 154.224 289.878,154.764 289.454,155.405 290.095 M145.133 301.533 C 145.601 302.001,145.249 302.833,144.583 302.833 C 144.137 302.833,143.833 302.530,143.833 302.083 C 143.833 301.637,144.137 301.333,144.583 301.333 C 144.776 301.333,145.023 301.423,145.133 301.533 M145.542 305.786 C 145.794 305.824,146.206 305.824,146.458 305.786 C 146.710 305.748,146.504 305.717,146.000 305.717 C 145.496 305.717,145.290 305.748,145.542 305.786 " stroke="none" fill="#fb6cdb" fill-rule="evenodd"/><path id="path2" d="M240.917 87.431 C 240.733 87.575,240.164 87.908,239.652 88.169 C 235.983 90.041,230.225 95.203,230.575 96.306 C 230.788 96.977,231.360 96.945,231.908 96.232 C 233.352 94.355,237.141 91.159,239.514 89.815 C 242.315 88.229,242.250 88.278,242.250 87.748 C 242.250 87.155,241.495 86.975,240.917 87.431 M227.897 98.623 C 227.312 99.022,227.616 100.000,228.325 100.000 C 229.101 100.000,229.266 98.620,228.500 98.540 C 228.271 98.516,228.000 98.554,227.897 98.623 M137.707 287.693 C 137.593 287.807,137.500 288.097,137.500 288.337 C 137.500 288.577,137.347 289.481,137.159 290.345 C 136.366 293.999,137.014 297.002,139.055 299.127 C 139.921 300.029,140.142 300.175,140.576 300.133 C 141.465 300.046,141.347 299.468,140.217 298.367 C 138.321 296.519,137.768 293.999,138.509 290.579 C 139.049 288.088,138.671 286.729,137.707 287.693 M143.994 301.844 C 143.832 302.147,143.855 302.262,144.130 302.537 C 144.590 302.997,145.211 302.684,145.135 302.030 C 145.065 301.428,144.285 301.300,143.994 301.844 " stroke="none" fill="#fcf8fb" fill-rule="evenodd"/><path id="path3" d="M122.333 167.465 C 121.787 167.655,121.510 168.186,121.586 168.894 C 121.627 169.273,121.742 170.371,121.842 171.333 C 122.305 175.825,123.984 180.350,124.958 179.729 C 125.424 179.433,125.289 178.470,124.436 176.000 C 123.506 173.307,123.167 171.520,123.167 169.317 C 123.167 167.605,123.000 167.234,122.333 167.465 M124.867 181.033 C 124.184 181.716,125.120 182.895,125.833 182.251 C 126.430 181.710,126.173 180.833,125.417 180.833 C 125.224 180.833,124.977 180.923,124.867 181.033 M234.533 239.533 C 234.150 239.916,234.447 241.167,234.921 241.167 C 235.241 241.167,235.860 240.701,235.935 240.404 C 236.143 239.572,235.126 238.941,234.533 239.533 M234.542 242.542 C 234.451 242.656,234.285 243.162,234.173 243.667 C 233.349 247.368,231.394 250.529,228.958 252.101 C 227.908 252.778,228.293 253.927,229.425 253.497 C 231.657 252.648,234.615 248.080,235.548 244.041 C 235.862 242.684,235.205 241.706,234.542 242.542 M200.178 261.736 C 199.919 262.048,199.992 262.255,201.127 264.432 C 201.609 265.357,202.399 266.557,202.883 267.099 C 203.366 267.640,204.428 268.946,205.243 270.000 C 206.057 271.054,206.845 272.003,206.992 272.109 C 207.140 272.215,207.558 272.572,207.922 272.904 C 208.286 273.235,209.071 273.854,209.667 274.278 C 210.262 274.703,210.938 275.213,211.167 275.413 C 212.012 276.147,213.310 276.235,213.564 275.574 C 213.721 275.164,213.233 274.500,212.776 274.500 C 211.738 274.500,207.966 271.288,206.081 268.799 C 205.367 267.855,204.459 266.746,204.064 266.333 C 203.670 265.921,202.864 264.683,202.275 263.583 C 201.158 261.500,200.706 261.101,200.178 261.736 " stroke="none" fill="#fc7ce4" fill-rule="evenodd"/><path id="path4" d="M133.491 127.292 L 132.917 127.917 133.542 127.342 C 133.885 127.026,134.167 126.745,134.167 126.717 C 134.167 126.590,134.026 126.710,133.491 127.292 M149.629 135.456 C 150.021 135.491,150.621 135.490,150.963 135.454 C 151.304 135.419,150.983 135.390,150.250 135.390 C 149.517 135.391,149.237 135.420,149.629 135.456 M161.539 145.333 C 161.539 145.654,161.573 145.785,161.615 145.625 C 161.657 145.465,161.657 145.202,161.615 145.042 C 161.573 144.881,161.539 145.012,161.539 145.333 M120.539 156.667 C 120.539 156.987,120.573 157.119,120.615 156.958 C 120.657 156.798,120.657 156.535,120.615 156.375 C 120.573 156.215,120.539 156.346,120.539 156.667 M132.372 164.167 C 132.372 164.487,132.406 164.619,132.448 164.458 C 132.490 164.298,132.490 164.035,132.448 163.875 C 132.406 163.715,132.372 163.846,132.372 164.167 M132.039 168.000 C 132.039 168.321,132.073 168.452,132.115 168.292 C 132.157 168.131,132.157 167.869,132.115 167.708 C 132.073 167.548,132.039 167.679,132.039 168.000 M130.892 180.833 C 130.892 181.612,130.920 181.931,130.955 181.542 C 130.990 181.152,130.990 180.515,130.955 180.125 C 130.920 179.735,130.892 180.054,130.892 180.833 M153.212 190.500 C 153.212 190.912,153.245 191.081,153.284 190.875 C 153.324 190.669,153.324 190.331,153.284 190.125 C 153.245 189.919,153.212 190.088,153.212 190.500 M245.212 241.500 C 245.212 241.912,245.245 242.081,245.284 241.875 C 245.324 241.669,245.324 241.331,245.284 241.125 C 245.245 240.919,245.212 241.088,245.212 241.500 M219.794 279.451 C 220.001 279.491,220.301 279.490,220.460 279.448 C 220.620 279.406,220.450 279.374,220.083 279.375 C 219.717 279.377,219.586 279.411,219.794 279.451 " stroke="none" fill="#f064c9" fill-rule="evenodd"/><path id="path5" d="M233.740 89.375 L 233.250 89.917 233.792 89.427 C 234.297 88.971,234.410 88.833,234.281 88.833 C 234.252 88.833,234.009 89.077,233.740 89.375 M246.330 108.625 L 244.750 110.250 246.375 108.670 C 247.884 107.202,248.076 107.000,247.955 107.000 C 247.930 107.000,247.199 107.731,246.330 108.625 M156.458 116.784 C 156.665 116.824,157.002 116.824,157.208 116.784 C 157.415 116.745,157.246 116.712,156.833 116.712 C 156.421 116.712,156.252 116.745,156.458 116.784 M161.458 116.787 C 161.756 116.824,162.244 116.824,162.542 116.787 C 162.840 116.750,162.596 116.720,162.000 116.720 C 161.404 116.720,161.160 116.750,161.458 116.787 M182.039 134.500 C 182.039 134.821,182.073 134.952,182.115 134.792 C 182.157 134.631,182.157 134.369,182.115 134.208 C 182.073 134.048,182.039 134.179,182.039 134.500 M138.406 142.542 L 137.917 143.083 138.458 142.594 C 138.756 142.325,139.000 142.081,139.000 142.052 C 139.000 141.923,138.862 142.037,138.406 142.542 M161.372 144.167 C 161.372 144.487,161.406 144.619,161.448 144.458 C 161.490 144.298,161.490 144.035,161.448 143.875 C 161.406 143.715,161.372 143.846,161.372 144.167 M119.709 162.917 C 119.711 163.283,119.745 163.414,119.785 163.206 C 119.824 162.999,119.823 162.699,119.781 162.540 C 119.739 162.380,119.707 162.550,119.709 162.917 M119.558 166.333 C 119.558 167.112,119.587 167.431,119.622 167.042 C 119.657 166.652,119.657 166.015,119.622 165.625 C 119.587 165.235,119.558 165.554,119.558 166.333 M132.048 169.250 C 132.049 169.708,132.081 169.876,132.120 169.623 C 132.158 169.369,132.157 168.994,132.117 168.789 C 132.078 168.584,132.046 168.792,132.048 169.250 M119.705 169.833 C 119.705 170.154,119.740 170.285,119.782 170.125 C 119.823 169.965,119.823 169.702,119.782 169.542 C 119.740 169.381,119.705 169.512,119.705 169.833 M131.375 174.917 C 131.377 175.283,131.411 175.414,131.451 175.206 C 131.491 174.999,131.490 174.699,131.448 174.540 C 131.406 174.380,131.374 174.550,131.375 174.917 M191.333 179.417 C 190.928 179.829,190.635 180.167,190.681 180.167 C 190.726 180.167,191.095 179.829,191.500 179.417 C 191.905 179.004,192.199 178.667,192.153 178.667 C 192.107 178.667,191.738 179.004,191.333 179.417 M130.846 182.447 C 130.838 182.685,130.705 182.835,130.458 182.882 L 130.083 182.955 130.464 182.977 C 130.858 183.001,131.094 182.668,130.946 182.297 C 130.898 182.180,130.854 182.247,130.846 182.447 M125.208 182.615 C 125.369 182.657,125.631 182.657,125.792 182.615 C 125.952 182.573,125.821 182.539,125.500 182.539 C 125.179 182.539,125.048 182.573,125.208 182.615 M127.208 182.782 C 127.369 182.823,127.631 182.823,127.792 182.782 C 127.952 182.740,127.821 182.705,127.500 182.705 C 127.179 182.705,127.048 182.740,127.208 182.782 M184.406 186.042 L 183.917 186.583 184.458 186.094 C 184.963 185.638,185.077 185.500,184.948 185.500 C 184.919 185.500,184.675 185.744,184.406 186.042 M210.240 186.708 L 209.750 187.250 210.292 186.760 C 210.797 186.304,210.910 186.167,210.781 186.167 C 210.752 186.167,210.509 186.410,210.240 186.708 M153.205 189.333 C 153.205 189.654,153.240 189.785,153.282 189.625 C 153.323 189.465,153.323 189.202,153.282 189.042 C 153.240 188.881,153.205 189.012,153.205 189.333 M207.240 189.708 L 206.750 190.250 207.292 189.760 C 207.797 189.304,207.910 189.167,207.781 189.167 C 207.752 189.167,207.509 189.410,207.240 189.708 M197.083 198.765 L 196.583 199.194 197.125 198.836 C 197.423 198.639,197.667 198.445,197.667 198.405 C 197.667 198.281,197.596 198.324,197.083 198.765 M198.833 221.583 C 199.331 222.088,199.776 222.500,199.822 222.500 C 199.868 222.500,199.498 222.088,199.000 221.583 C 198.502 221.079,198.057 220.667,198.011 220.667 C 197.966 220.667,198.335 221.079,198.833 221.583 M171.000 222.885 C 171.000 222.914,171.244 223.158,171.542 223.427 L 172.083 223.917 171.594 223.375 C 171.138 222.870,171.000 222.757,171.000 222.885 M166.705 224.833 C 166.705 225.154,166.740 225.285,166.782 225.125 C 166.823 224.965,166.823 224.702,166.782 224.542 C 166.740 224.381,166.705 224.512,166.705 224.833 M233.566 237.917 C 233.566 239.200,233.592 239.703,233.624 239.034 C 233.656 238.366,233.655 237.316,233.623 236.701 C 233.591 236.086,233.565 236.633,233.566 237.917 M245.225 243.500 C 245.225 244.279,245.254 244.598,245.289 244.208 C 245.324 243.819,245.324 243.181,245.289 242.792 C 245.254 242.402,245.225 242.721,245.225 243.500 M244.875 247.917 C 244.877 248.283,244.911 248.414,244.951 248.206 C 244.991 247.999,244.990 247.699,244.948 247.540 C 244.906 247.380,244.874 247.550,244.875 247.917 M162.885 251.417 C 162.886 251.967,162.917 252.172,162.954 251.872 C 162.991 251.572,162.990 251.122,162.952 250.872 C 162.914 250.622,162.884 250.867,162.885 251.417 M220.000 250.719 C 220.000 250.748,220.244 250.991,220.542 251.260 L 221.083 251.750 220.594 251.208 C 220.138 250.703,220.000 250.590,220.000 250.719 M244.542 251.417 C 244.544 251.783,244.578 251.914,244.618 251.706 C 244.658 251.499,244.656 251.199,244.615 251.040 C 244.573 250.880,244.540 251.050,244.542 251.417 M142.205 252.500 C 142.205 252.821,142.240 252.952,142.282 252.792 C 142.323 252.631,142.323 252.369,142.282 252.208 C 142.240 252.048,142.205 252.179,142.205 252.500 M224.211 253.286 C 224.464 253.325,224.839 253.324,225.044 253.284 C 225.249 253.244,225.042 253.213,224.583 253.214 C 224.125 253.216,223.957 253.248,224.211 253.286 M161.542 265.917 C 161.544 266.283,161.578 266.414,161.618 266.206 C 161.658 265.999,161.656 265.699,161.615 265.540 C 161.573 265.380,161.540 265.550,161.542 265.917 M237.742 268.375 L 237.083 269.083 237.792 268.425 C 238.450 267.812,238.577 267.667,238.450 267.667 C 238.423 267.667,238.105 267.985,237.742 268.375 M235.897 270.240 C 235.847 270.372,235.835 270.616,235.870 270.782 C 235.911 270.970,235.968 270.880,236.022 270.542 C 236.113 269.974,236.054 269.832,235.897 270.240 M233.658 273.625 L 233.083 274.250 233.708 273.676 C 234.052 273.360,234.333 273.078,234.333 273.051 C 234.333 272.923,234.192 273.043,233.658 273.625 M216.375 279.455 C 216.719 279.491,217.281 279.491,217.625 279.455 C 217.969 279.419,217.688 279.389,217.000 279.389 C 216.313 279.389,216.031 279.419,216.375 279.455 M135.389 293.000 C 135.389 293.688,135.419 293.969,135.455 293.625 C 135.491 293.281,135.491 292.719,135.455 292.375 C 135.419 292.031,135.389 292.313,135.389 293.000 M154.968 301.125 C 154.674 301.467,154.454 301.833,154.542 301.833 C 154.576 301.833,154.770 301.608,154.974 301.333 C 155.375 300.790,155.372 300.655,154.968 301.125 M144.788 304.454 C 145.084 304.490,145.609 304.491,145.955 304.455 C 146.300 304.419,146.058 304.389,145.417 304.388 C 144.775 304.387,144.492 304.417,144.788 304.454 M144.958 305.618 C 145.165 305.657,145.502 305.657,145.708 305.618 C 145.915 305.578,145.746 305.545,145.333 305.545 C 144.921 305.545,144.752 305.578,144.958 305.618 M147.294 305.785 C 147.501 305.824,147.801 305.823,147.960 305.781 C 148.120 305.739,147.950 305.707,147.583 305.709 C 147.217 305.711,147.086 305.745,147.294 305.785 " stroke="none" fill="#fc5caa" fill-rule="evenodd"/><path id="path6" d="M257.137 94.916 C 256.887 95.464,257.268 95.899,258.458 96.427 C 258.940 96.640,259.333 96.849,259.333 96.891 C 259.333 97.012,256.102 99.087,255.252 99.512 C 254.647 99.814,254.344 100.527,254.658 100.907 C 254.917 101.218,255.597 101.250,255.783 100.958 C 255.857 100.844,256.194 100.600,256.533 100.417 C 256.872 100.233,258.002 99.540,259.045 98.875 C 260.088 98.210,261.057 97.667,261.200 97.667 C 262.289 97.667,261.958 96.582,260.667 95.920 C 257.548 94.319,257.424 94.284,257.137 94.916 M242.958 239.518 C 242.689 239.670,242.667 240.132,242.667 245.453 C 242.667 248.626,242.589 251.716,242.495 252.320 C 242.205 254.165,241.993 255.376,241.800 256.286 C 241.598 257.242,241.767 257.667,242.350 257.667 C 243.046 257.667,243.346 256.639,243.907 252.333 C 244.160 250.390,244.258 241.077,244.034 240.265 C 243.863 239.644,243.356 239.292,242.958 239.518 M154.348 290.066 C 154.242 290.194,154.089 290.700,154.008 291.191 C 152.977 297.450,151.559 300.692,149.168 302.250 C 148.129 302.927,148.837 304.010,149.933 303.420 C 152.145 302.228,153.995 298.656,154.989 293.657 C 155.270 292.242,155.538 290.920,155.584 290.720 C 155.740 290.038,154.789 289.535,154.348 290.066 " stroke="none" fill="#ef6ccc" fill-rule="evenodd"/><path id="path7" d="M138.875 288.417 C 138.877 288.783,138.911 288.914,138.951 288.706 C 138.991 288.499,138.990 288.199,138.948 288.040 C 138.906 287.880,138.874 288.050,138.875 288.417 M139.000 299.250 C 139.311 299.571,139.603 299.833,139.649 299.833 C 139.695 299.833,139.478 299.571,139.167 299.250 C 138.856 298.929,138.564 298.667,138.518 298.667 C 138.472 298.667,138.689 298.929,139.000 299.250 " stroke="none" fill="#fca4e8" fill-rule="evenodd"/><path id="path8" d="" stroke="none" fill="#fc86e4" fill-rule="evenodd"/></g></svg>